PathFileType	4	(X/Y/Z)	Kaydara	
DataRate	CameraRate	NumFrames	NumMarkers	Units	OrigDataRate	OrigDataStartFrame	OrigNumFrames	
240.00	240.00	4	72	mm	240.00	1	355	
Frame#	Time	Hips			RightUpLeg			RightLeg			RightFoot			RightFoot_End			LeftUpLeg			LeftLeg			LeftFoot			LeftFoot_End			Spine			Spine1			Spine2			Spine3			Neck			Head			Head_End			RightShoulder			RightArm			RightForeArm			RightHand			RightHandThumb1			RightHandThumb2			RightHandThumb3			RightHandThumb3_End			RightInHandIndex			RightHandIndex1			RightHandIndex2			RightHandIndex3			RightHandIndex3_End			RightInHandMiddle			RightHandMiddle1			RightHandMiddle2			RightHandMiddle3			RightHandMiddle3_End			RightInHandRing			RightHandRing1			RightHandRing2			RightHandRing3			RightHandRing3_End			RightInHandPinky			RightHandPinky1			RightHandPinky2			RightHandPinky3			RightHandPinky3_End			LeftShoulder			LeftArm			LeftForeArm			LeftHand			LeftHandThumb1			LeftHandThumb2			LeftHandThumb3			LeftHandThumb3_End			LeftInHandIndex			LeftHandIndex1			LeftHandIndex2			LeftHandIndex3			LeftHandIndex3_End			LeftInHandMiddle			LeftHandMiddle1			LeftHandMiddle2			LeftHandMiddle3			LeftHandMiddle3_End			LeftInHandRing			LeftHandRing1			LeftHandRing2			LeftHandRing3			LeftHandRing3_End			LeftInHandPinky			LeftHandPinky1			LeftHandPinky2			LeftHandPinky3			LeftHandPinky3_End			
		X1	Y1	Z1	X2	Y2	Z2	X3	Y3	Z3	X4	Y4	Z4	X5	Y5	Z5	X6	Y6	Z6	X7	Y7	Z7	X8	Y8	Z8	X9	Y9	Z9	X10	Y10	Z10	X11	Y11	Z11	X12	Y12	Z12	X13	Y13	Z13	X14	Y14	Z14	X15	Y15	Z15	X16	Y16	Z16	X17	Y17	Z17	X18	Y18	Z18	X19	Y19	Z19	X20	Y20	Z20	X21	Y21	Z21	X22	Y22	Z22	X23	Y23	Z23	X24	Y24	Z24	X25	Y25	Z25	X26	Y26	Z26	X27	Y27	Z27	X28	Y28	Z28	X29	Y29	Z29	X30	Y30	Z30	X31	Y31	Z31	X32	Y32	Z32	X33	Y33	Z33	X34	Y34	Z34	X35	Y35	Z35	X36	Y36	Z36	X37	Y37	Z37	X38	Y38	Z38	X39	Y39	Z39	X40	Y40	Z40	X41	Y41	Z41	X42	Y42	Z42	X43	Y43	Z43	X44	Y44	Z44	X45	Y45	Z45	X46	Y46	Z46	X47	Y47	Z47	X48	Y48	Z48	X49	Y49	Z49	X50	Y50	Z50	X51	Y51	Z51	X52	Y52	Z52	X53	Y53	Z53	X54	Y54	Z54	X55	Y55	Z55	X56	Y56	Z56	X57	Y57	Z57	X58	Y58	Z58	X59	Y59	Z59	X60	Y60	Z60	X61	Y61	Z61	X62	Y62	Z62	X63	Y63	Z63	X64	Y64	Z64	X65	Y65	Z65	X66	Y66	Z66	X67	Y67	Z67	X68	Y68	Z68	X69	Y69	Z69	X70	Y70	Z70	X71	Y71	Z71	X72	Y72	Z72	

1	0.0	4921.0129	906.651	56.2195	5007.032615906281	895.162832088957	4.647827866648821	4929.569602625178	495.0537399011712	-93.72695503429253	4893.68103421564	107.03194315889442	-159.927987273594	4818.784020346578	32.55094230222586	-0.5849593313940116	4844.568547103142	889.9277647470499	119.42814061821971	4779.269938366344	486.19826569750813	211.04459245743925	4741.500684893113	54.65311743184247	295.3645569999116	4606.383795348589	-17.59541800597994	180.4583029897353	4875.566222193348	1032.4408474498857	5.387052097489366	4825.508951078032	1097.354970209724	-45.96640038930756	4768.9470004749855	1159.1202745049682	-101.95542341735631	4708.479449130345	1208.2683781073033	-159.65582550997775	4643.511458865894	1261.1506989196034	-220.6337294771132	4583.124695553021	1309.2083150874157	-275.3127117686826	4466.267994317723	1405.5036994471627	-326.3749385791075	4689.066260864579	1246.2334240469909	-222.35784186181408	4747.53036204418	1232.888755479989	-335.7324245106633	4763.001002152338	954.2218811757491	-320.6028100926064	4825.576491134604	699.955799523787	-344.14502476752426	4829.048595124905	674.7853052122631	-353.300519348441	4819.007676951432	657.2432673924445	-360.8294868949168	4812.622905082883	644.1526875821061	-364.449624830678	4807.820078728608	632.4917049593049	-366.07911059716355	4833.2126542749265	667.7858662146542	-348.073416913047	4839.916785671718	622.1170104678979	-349.1355002596976	4835.677883952932	598.6471986224628	-351.20442537488725	4827.13970343021	592.8740074866739	-354.46031421178253	4816.0909979845765	594.0435404681988	-358.4837916282434	4834.208972308472	667.3925040934798	-343.6852629050528	4841.28943250628	622.6333298551083	-342.34725325882425	4836.762544231441	597.1297098411821	-344.0240705197247	4826.508836720371	590.2157508716191	-347.6734787261787	4814.442535119072	591.5203211975564	-351.9404083173945	4834.837512441121	668.1807919548446	-340.5340258359934	4842.008695330665	628.4617098616177	-336.5294711841891	4838.151597630049	606.4132639737696	-337.3997376801517	4828.308099126574	599.8401353702743	-340.6058989008671	4816.98500796806	601.1122306235554	-344.46909442404007	4834.613664552469	671.1938336627529	-337.059571889343	4841.376379495174	636.2736641257129	-331.1647745904957	4838.393936638705	619.0737870546891	-330.9568666843152	4831.265409831433	614.4997620737981	-332.8577807280876	4821.264547960793	615.7534995415746	-336.0280569576403	4640.355488215568	1241.5159792962686	-176.84367256570502	4571.298054953243	1177.3731134067816	-80.73390817432228	4700.977863070471	986.8374604058496	-195.4550196987514	4869.2163686329595	794.6227338708742	-300.09105478186325	4855.649582074629	783.6578186621068	-320.99622055083177	4853.220345045566	765.1317812965177	-354.7796781157137	4852.302398873823	750.1994065053954	-378.49950906674377	4852.199088113474	736.0136035588143	-398.4388373631591	4856.066933558063	775.2171075041515	-322.7372964348183	4843.655779349197	738.6968482410122	-361.82706663346227	4840.957012292555	714.1086175920764	-393.6709596782674	4842.8714220042675	703.7638062317983	-412.8254295844981	4846.879042806937	698.534735048712	-428.24593999834684	4858.885709741391	771.0039443293025	-322.12235558657795	4848.3032233734675	733.1040479269013	-359.9153953003047	4845.777936179237	705.8369714175153	-394.4612825865631	4848.288966072944	693.1469283086955	-417.47343975587745	4852.77192623053	687.3235739915544	-434.2991163344435	4861.136176395707	768.9303537649806	-320.652306274984	4853.436891305087	733.0797989957547	-353.13487102003694	4851.682036423156	708.9276879085069	-382.9794512735002	4854.341083203656	696.4821483780489	-405.0353794485665	4858.668495355435	690.9095950843608	-420.78887141095487	4864.544131333866	767.8263790664286	-318.1255538701037	4859.385729427278	734.1549910048493	-346.24546093824824	4858.710630287179	714.3691921958147	-369.5879301920334	4861.003330674429	705.0757705962134	-385.4066778303032	4865.0399732914975	700.0153202033997	-399.2069348854105
2	0.004	4921.0129	906.651	56.2195	5007.027842475189	895.1547231746198	4.65765415601137	4929.353751527931	495.07477949392916	-93.68361939305379	4893.527158686758	107.04937607706185	-159.89473794436202	4818.621840701873	32.56279237768172	-0.5588247934957038	4844.574766505442	889.9386100339188	119.42615500711365	4779.180013614675	486.228982743942	211.05942888994554	4741.4470398982085	54.70045485777966	295.5118860875132	4606.317881645505	-17.535450269094163	180.60987990027107	4875.559942501197	1032.4288036184785	5.351909506819101	4825.513015813533	1097.335164332314	-46.03374087236995	4768.967693284053	1159.0976505970073	-102.05800789576173	4708.505531883052	1208.2297571940715	-159.79476202152654	4643.542403441264	1261.0949962022567	-220.81003064710768	4583.15784610062	1309.1357156129022	-275.5218429928082	4466.293993236248	1405.4027579318376	-326.62122941361366	4689.09600020744	1246.1833051037283	-222.5166310534138	4747.639116051008	1232.9179989952852	-335.9155723504129	4763.210488173653	954.3550853791963	-320.4740799846851	4826.537494943131	700.2394734533916	-345.11680299102176	4829.923929725748	675.2322891968603	-354.31531577217083	4819.94805775048	657.9515938622443	-361.86753958507126	4813.6439914685925	645.0256595443101	-365.51116031874903	4808.938736640801	633.4870893127002	-367.1664567203663	4834.202759018676	668.1723270448636	-349.12371138681846	4841.101310120262	622.653797270718	-350.30930352258696	4837.020660476414	599.3596351370657	-352.43517784972954	4828.549535611044	593.7371087943142	-355.6950335788905	4817.535199824501	595.059315304756	-359.70058846155433	4835.289704875495	667.7299104037465	-344.74969959095387	4842.608810212076	623.0908060457366	-343.5398145244386	4838.265962249907	597.7719829864646	-345.28020412618787	4828.098604823074	591.0364982931278	-348.93508398705876	4816.072559122887	592.5065185898746	-353.1827362502636	4835.9773492409095	668.4789006115991	-341.60566912206076	4843.41382101919	628.8309569052728	-337.7232681081559	4839.728364230106	606.9363770175331	-338.650199263107	4829.974121229091	600.5315755478856	-341.8623046822131	4818.691706859847	601.9574225198703	-345.70769039684996	4835.815697547661	671.4486342806282	-338.1330539713312	4842.860265153019	636.5643612419473	-332.3526995607996	4840.03162965829	619.4761520684307	-332.19158885543277	4832.9761218627855	615.0193216967235	-334.0975264803295	4823.015848813175	616.4060447846326	-337.25242224333067	4640.384320295918	1241.4659977607107	-177.01292863627802	4571.3459156947965	1177.3132789157712	-80.91066737964746	4700.898012309783	987.110066617108	-196.0095054410285	4869.401675708039	795.1917852385385	-300.9654246472248	4855.818235235085	784.0847992250627	-321.75802891114705	4853.2411932055375	765.3296576691674	-355.6659692350315	4852.208567847173	750.2606969443085	-379.50277764285056	4851.999604026475	735.9806716507563	-399.5655356374316	4856.20086559747	775.7279403352776	-323.58187368570424	4843.628981711755	739.1407492133916	-362.805492093236	4840.770713162668	714.4280924019693	-394.82520480421016	4842.581847471976	703.9496836195328	-414.0993039497451	4846.501212855721	698.5720965649296	-429.62579374668803	4858.9910184425635	771.5758598734478	-323.0485818803213	4848.236292635358	733.6437418176541	-361.01631365268736	4845.533642442231	706.2490714613336	-395.7644977434497	4847.918483620209	693.4017725608032	-418.92599411382156	4852.3041029726155	687.4178233637334	-435.8700674582625	4861.2257394562885	769.5480593417171	-321.63218712174995	4853.35952222595	733.7110900049663	-354.31608805643833	4851.446956074634	709.4561684081298	-384.3473958439295	4853.982626610949	696.863404456344	-406.5528989122786	4858.217728582779	691.1419654611608	-422.42033225168984	4864.617248446265	768.4914949490287	-319.1682406452733	4859.296805326546	734.864884967186	-347.5095113648923	4858.491273095362	715.0097996507649	-371.01686453351715	4860.6919778159745	705.6153002398735	-386.95214239822974	4864.645694952459	700.4265913852181	-400.85760893970337
3	0.008	4921.0129	906.651	56.2195	5007.008925092426	895.1434900609438	4.666070856462825	4929.1159043668995	495.09348027204226	-93.62981746940488	4893.397231468756	107.07163301788324	-159.86245436116556	4818.484337938287	32.577676902745765	-0.5341994967619149	4844.594852060085	889.9522138619129	119.42470115050307	4779.0987984866515	486.26710319079496	211.0900053262241	4741.384134254625	54.75584937765192	295.6639491046661	4606.246839625284	-17.471616950738206	180.76485343316588	4875.555290242528	1032.4185260312229	5.320795770456728	4825.507407779953	1097.3090018642006	-46.095464158278	4768.9680955428985	1159.0609292816725	-102.15164009142492	4708.506781413342	1208.1759014625777	-159.9194254837879	4643.543808723529	1261.0227733200315	-220.9665405164693	4583.157515742966	1309.0454845949669	-275.7063625193639	4466.287030852257	1405.2856293636535	-326.84082465325355	4689.093659833496	1246.1159690279374	-222.65485535172033	4747.712975934648	1232.9316814890278	-336.0555704574093	4763.344890599171	954.4816547686106	-320.31673615495134	4827.311850987002	700.483459821216	-346.00460472683676	4830.618811918476	675.6334663641969	-355.2427680742875	4820.708359178493	658.5935771772466	-362.8189580133693	4814.4822272778	645.8176457404882	-366.4865600620827	4809.8696408473115	634.3889890951817	-368.1680862800619	4835.001735949837	668.5124403372206	-350.0858896220669	4842.078257702535	623.1274062413255	-351.39074973339206	4838.146435722869	599.9905388874278	-353.5731755201573	4829.741362862772	594.5052036873824	-356.83847816420587	4818.76384121782	595.9675404565451	-360.82850062437683	4836.171734556914	668.0203113496777	-345.72630029751457	4843.709343191415	623.484507243108	-344.6405543028032	4839.539307960966	598.330411725928	-346.44413620896916	4829.456636992396	591.7571264328374	-350.10629916977626	4817.473301818566	593.3788626843393	-354.33730188002573	4836.913507509118	668.7300305570678	-342.5897559388122	4844.5927701690825	629.1384003986025	-338.82610111199483	4841.068236058329	607.3801782897889	-339.8094273557498	4831.401148791299	601.127997236266	-343.02925701999385	4820.161484541926	602.6946785214898	-346.85931928025775	4836.809137450611	671.6564870620908	-339.1196352441066	4844.1117412730955	636.7947344690517	-333.450911544658	4841.426974337716	619.8042130681996	-333.33649348288645	4834.442298014065	615.453139988484	-335.24880690738667	4824.524072950884	616.9614170610755	-338.39055568285966	4640.389416046231	1241.4010255293508	-177.1670815915976	4571.399013598468	1177.2328894085508	-81.08265904205126	4700.750348094699	987.3443228160276	-196.55768871189866	4869.453440390242	795.6916607236321	-301.7879963052289	4855.858664996267	784.456082354271	-322.46437734513626	4853.1475153313495	765.4789969559522	-356.47574501819065	4852.010191910259	750.2759139054548	-380.4132370908471	4851.704274227915	735.9015618019013	-400.5844463119535	4856.208044742267	776.1752562487093	-324.36593971218474	4843.490059198912	739.5204772630684	-363.69914526529845	4840.485689048566	714.6830031886686	-395.8717560517488	4842.202150825316	704.0728957772167	-415.2511306281554	4846.040565096519	698.5498092328107	-430.87164942422567	4858.970421062137	772.0774226186005	-323.9104189794812	4848.05818065402	734.1087455030961	-362.02708344986104	4845.192857708673	706.5851547475072	-396.95211177873364	4847.461922019778	693.5824590747623	-420.2454186485769	4851.758208677993	687.4410056322539	-437.2947100481916	4861.189594547734	770.0905820078616	-322.5456038809752	4853.169734819824	734.2590674746209	-355.4060884424781	4851.112308362396	709.899266553624	-385.6015290550067	4853.534670659508	697.1605866873459	-407.9394813037641	4857.685003910807	691.2929382453107	-423.9083615375347	4864.564673945073	769.0760161452621	-320.14241386308464	4859.094303416554	735.4833323220212	-348.68122771058705	4858.168644068026	715.5559156095493	-372.33483949135103	4860.2847042533185	706.0606213312317	-388.3738985205275	4864.162180701898	700.7456382834386	-402.37335824986127
4	0.013	4921.0129	906.651	56.2195	5006.977174021313	895.129429536767	4.673179628984637	4928.857384766588	495.1101723471478	-93.56635354075092	4893.288969910309	107.09833256558629	-159.83092775181393	4818.36916551019	32.595351281066755	-0.5108357590843648	4844.627523545924	889.9683060854278	119.42374501402756	4779.025879527856	486.3118686012832	211.13488373389984	4741.3135059674505	54.81836835008361	295.8201618778934	4606.171833501841	-17.404495886235004	180.92276970204082	4875.552095231181	1032.409883248491	5.2933994861043345	4825.492542047363	1097.2767571755871	-46.15209972753619	4768.949048400225	1159.0106440606685	-102.2371650660485	4708.484280569764	1208.1074597868783	-160.0309967177927	4643.517024848771	1260.934809416884	-221.10480185710642	4583.125294920586	1308.9385192342393	-275.86814161410274	4466.249032169024	1405.1534165841197	-327.03608989080885	4689.060819556656	1246.0322683194106	-222.774206681363	4747.753637743523	1232.9301243797102	-336.15573413679715	4763.411503228093	954.6003411355526	-320.13509933596833	4827.913258726417	700.6900203037222	-346.81745196287	4831.146518521782	675.9916671926328	-356.09256084475675	4821.301375104701	659.1734970562983	-363.69370259653726	4815.150222858735	646.533973234657	-367.3859320595746	4810.625379410425	635.2036370902294	-369.0941922278835	4835.623424179605	668.8091591377946	-350.9695732586684	4842.862016658689	623.5422750002564	-352.39005697745256	4839.069695130398	600.5457341068371	-354.6288604586796	4830.729407589397	595.1850262733201	-357.9011143703621	4819.790708654291	596.7757353883889	-361.87793714187404	4836.869283384533	668.2667287244908	-346.624535792799	4844.60599628189	623.8189403251038	-345.65944356437626	4840.597700663181	598.8110207106944	-347.5260600598566	4830.597758387457	592.384759923168	-351.19733633053875	4818.6591226786295	594.1453385193462	-355.4142493339694	4837.660469798547	668.9372112157265	-343.4956370045039	4845.56092889914	629.3883984249624	-339.84767016562967	4842.186782103903	607.7503512627728	-340.88729232897805	4832.6044926991435	601.6361462504958	-344.11663196748316	4821.409226185043	603.3315540766721	-347.9337873661844	4837.608719658299	671.8204112187884	-340.0284968645572	4845.146541459278	636.9690056173761	-334.4688136129192	4842.595922019337	620.0632512941182	-334.4010820827872	4835.679735860217	615.8072721615412	-336.3211092872874	4825.804660673885	617.4263882584281	-339.4518721742639	4640.371709074038	1241.3216832455726	-177.30726151832613	4571.456521522397	1177.1323862431555	-81.2499236124242	4700.540509937567	987.5416196400316	-197.10121286707687	4869.382645920111	796.1268103424972	-302.5656270564461	4855.7809647085205	784.7757217187401	-323.12292652723465	4852.94839359586	765.5839990084934	-357.2186186308871	4851.7156481245365	750.2494872719844	-381.24193262529144	4851.320887172669	735.7810053673338	-401.5078703043101	4856.09847526121	776.5635154421209	-325.0974110123105	4843.247534505574	739.8410565401894	-364.5181638181543	4840.109453791665	714.8788562799642	-396.82270887889206	4841.739346605171	704.1391498213876	-416.2942171435939	4845.5037870546985	698.4736796102848	-431.9978143511409	4858.833971996596	772.5134261751065	-324.7159223728068	4847.777523848972	734.5045829781383	-362.958001701151	4844.763128990525	706.8513136933963	-398.0365696862334	4846.9262313867985	693.6953428130541	-421.44562625502573	4851.140838326489	687.3995944150505	-438.5880536815063	4861.037868756938	770.5629365840356	-323.4006502932436	4852.876446952813	734.7295929236863	-356.41499839902133	4850.686075568375	710.2633813592801	-386.7538577255456	4853.004629273168	697.3803696645986	-409.20855382556806	4857.077404849132	691.3693101927904	-425.2674197365244	4864.396665778186	769.5851957752053	-321.05617273843825	4858.787450974568	736.0165100093661	-349.7705665083136	4857.7512483304035	716.0142093471084	-373.5533217863973	4859.789613618292	706.4186340961191	-389.6844510253526	4863.597249010065	700.979486580285	-403.76760414005247
